<?xml version="1.0" encoding="utf-8"?>
<!-- Generator: Adobe Illustrator 16.0.0, SVG Export Plug-In . SVG Version: 6.00 Build 0)  -->
<!DOCTYPE svg PUBLIC "-//W3C//DTD SVG 1.1//EN" "http://www.w3.org/Graphics/SVG/1.1/DTD/svg11.dtd">
<svg version="1.1" xmlns="http://www.w3.org/2000/svg" xmlns:xlink="http://www.w3.org/1999/xlink" x="0px" y="0px" width="130px"
	 height="80px" viewBox="0 0 130 80" enable-background="new 0 0 130 80" xml:space="preserve">
<g id="Cards">
</g>
<g id="PayPal">
</g>
<g id="Android_Pay">
	<path id="path3352" fill="#6EBD45" d="M9.369,31.338H9.208v21.158c0,1.766,1.444,3.209,3.211,3.209h2.767v7.376
		c0,1.771,1.439,3.209,3.211,3.209c1.772,0,3.209-1.438,3.209-3.209v-7.376h4.324v7.376c0,1.771,1.438,3.209,3.21,3.209
		c1.772,0,3.21-1.438,3.21-3.209v-7.376h2.697c1.766,0,3.209-1.443,3.209-3.209V31.338H9.369L9.369,31.338z M15.762,23.716
		c0,0.752,0.61,1.365,1.365,1.365c0.752,0,1.365-0.613,1.365-1.365c0-0.755-0.613-1.365-1.365-1.365
		C16.372,22.351,15.762,22.961,15.762,23.716z M28.977,23.716c0,0.752,0.609,1.365,1.363,1.365c0.752,0,1.365-0.613,1.365-1.365
		c0-0.755-0.613-1.365-1.365-1.365C29.586,22.351,28.977,22.961,28.977,23.716z M9.246,30.213c-0.007-0.146-0.01-0.291-0.01-0.438
		c0-0.982,0.123-1.943,0.357-2.862c0.9-3.551,3.441-6.545,6.875-8.323L14.24,14.48c-0.136-0.254-0.043-0.57,0.212-0.708
		c0.252-0.138,0.568-0.044,0.705,0.21l2.255,4.157c1.916-0.83,4.07-1.297,6.347-1.297c2.26,0,4.398,0.461,6.304,1.279l2.246-4.139
		c0.136-0.254,0.451-0.348,0.707-0.21c0.252,0.137,0.348,0.453,0.209,0.708l-2.215,4.087c3.602,1.851,6.227,5.041,7.021,8.803
		c0.09,0.427,0.155,0.859,0.199,1.298v1.548H9.246V30.213z M45.809,33.985c0-1.772-1.437-3.206-3.209-3.206
		c-1.771,0-3.209,1.434-3.209,3.206v13.482c0,1.772,1.438,3.209,3.209,3.209c1.772,0,3.209-1.437,3.209-3.209V33.985z M8.059,33.985
		v13.482c0,1.772-1.438,3.209-3.21,3.209S1.64,49.239,1.64,47.467V33.985c0-1.772,1.437-3.206,3.209-3.206
		S8.059,32.213,8.059,33.985"/>
	<path id="path3354" fill="#7B7979" d="M128.361,30.929h-4.142l-8.996,21.544h1.839l-8.969-21.52h-4.268l10.171,23.604l-0.807,1.837
		c-0.908,2.035-2.622,2.918-4.267,2.918h-1.35v3.7h1.304c3.652,0,6.541-1.96,8.086-5.685L128.361,30.929L128.361,30.929
		L128.361,30.929z M101.62,55.466V30.954h-3.675v2.794c-2.061-2.06-4.903-3.285-8.137-3.285c-7.01,0-12.526,5.687-12.526,12.722
		c0,7.059,5.517,12.769,12.526,12.769c3.233,0,6.076-1.251,8.137-3.284v2.796H101.62L101.62,55.466L101.62,55.466z M90.078,52.375
		c-5.025,0-9.093-4.116-9.093-9.19c0-5.049,4.067-9.166,9.093-9.166c3.135,0,6.102,1.47,7.623,3.995
		c0.074,0.146,0.244,0.392,0.244,0.807v8.701c-0.025,0.442-0.17,0.712-0.27,0.836C96.034,50.808,93.213,52.375,90.078,52.375
		L90.078,52.375z M54.145,62.816V52.67c2.061,2.06,4.903,3.309,8.138,3.309c6.986,0,12.523-5.711,12.523-12.744
		c0-7.06-5.537-12.771-12.523-12.771c-3.234,0-6.077,1.25-8.138,3.285v-2.794h-3.676v31.862H54.145L54.145,62.816L54.145,62.816z
		 M62.014,52.4c-3.137,0-6.055-1.495-7.623-3.995c-0.098-0.146-0.246-0.392-0.246-0.81v-8.798c0.025-0.416,0.172-0.687,0.27-0.808
		c1.644-2.452,4.463-3.947,7.6-3.947c5,0,9.068,4.117,9.068,9.192C71.082,48.281,67.014,52.4,62.014,52.4L62.014,52.4"/>
</g>
<g id="Apple_Pay">
</g>
<g id="Google_Pay">
</g>
<g id="Amazon_Pay">
</g>
</svg>
