<?xml version="1.0" encoding="utf-8"?>
<!-- Generator: Adobe Illustrator 16.0.0, SVG Export Plug-In . SVG Version: 6.00 Build 0)  -->
<!DOCTYPE svg PUBLIC "-//W3C//DTD SVG 1.1//EN" "http://www.w3.org/Graphics/SVG/1.1/DTD/svg11.dtd">
<svg version="1.1" xmlns="http://www.w3.org/2000/svg" xmlns:xlink="http://www.w3.org/1999/xlink" x="0px" y="0px" width="130px"
	 height="80px" viewBox="0 0 130 80" enable-background="new 0 0 130 80" xml:space="preserve">
<g id="Cards">
</g>
<g id="PayPal">
</g>
<g id="Android_Pay">
</g>
<g id="Apple_Pay">
	<path id="XMLID_34_" fill="#454545" d="M25.187,20.381c-1.486,1.759-3.864,3.146-6.243,2.947c-0.297-2.377,0.867-4.904,2.229-6.465
		c1.486-1.809,4.087-3.097,6.193-3.195C27.615,16.145,26.648,18.572,25.187,20.381 M27.342,23.799
		c-3.443-0.197-6.391,1.957-8.026,1.957c-1.66,0-4.162-1.857-6.887-1.809c-3.542,0.051-6.837,2.057-8.645,5.252
		C0.068,35.591,2.818,45.054,6.41,50.256c1.759,2.576,3.865,5.4,6.639,5.301c2.625-0.099,3.666-1.709,6.837-1.709
		c3.196,0,4.112,1.709,6.887,1.66c2.874-0.05,4.682-2.576,6.44-5.153c2.007-2.923,2.824-5.771,2.874-5.92
		c-0.049-0.05-5.549-2.155-5.598-8.497c-0.05-5.301,4.335-7.828,4.533-7.977C32.544,24.295,28.68,23.898,27.342,23.799
		 M47.234,16.615v38.62h5.995V42.031h8.298c7.58,0,12.906-5.201,12.906-12.732s-5.227-12.684-12.708-12.684H47.234z M53.229,21.669
		h6.911c5.202,0,8.175,2.774,8.175,7.654s-2.973,7.68-8.2,7.68h-6.886V21.669z M85.383,55.532c3.766,0,7.258-1.907,8.844-4.93h0.124
		v4.633h5.549V36.012c0-5.574-4.459-9.166-11.321-9.166c-6.366,0-11.072,3.643-11.246,8.646h5.4c0.445-2.379,2.65-3.939,5.673-3.939
		c3.666,0,5.722,1.709,5.722,4.855v2.131l-7.48,0.445c-6.961,0.421-10.727,3.271-10.727,8.225
		C75.92,52.213,79.81,55.532,85.383,55.532z M86.993,50.949c-3.195,0-5.227-1.536-5.227-3.889c0-2.428,1.957-3.84,5.697-4.062
		l6.663-0.422v2.181C94.127,48.373,91.056,50.949,86.993,50.949z M107.306,65.738c5.847,0,8.597-2.229,10.999-8.992l10.528-29.528
		h-6.094l-7.061,22.815h-0.123l-7.061-22.815h-6.268l10.157,28.116l-0.545,1.709c-0.917,2.898-2.403,4.014-5.054,4.014
		c-0.471,0-1.388-0.05-1.759-0.1v4.633C105.374,65.688,106.86,65.738,107.306,65.738z"/>
</g>
<g id="Google_Pay">
</g>
<g id="Amazon_Pay">
</g>
</svg>
