<?xml version="1.0" encoding="utf-8"?>
<!-- Generator: Adobe Illustrator 16.0.0, SVG Export Plug-In . SVG Version: 6.00 Build 0)  -->
<!DOCTYPE svg PUBLIC "-//W3C//DTD SVG 1.1//EN" "http://www.w3.org/Graphics/SVG/1.1/DTD/svg11.dtd">
<svg version="1.1" xmlns="http://www.w3.org/2000/svg" xmlns:xlink="http://www.w3.org/1999/xlink" x="0px" y="0px" width="130px"
	 height="80px" viewBox="0 0 130 80" enable-background="new 0 0 130 80" xml:space="preserve">
<g id="Cards">
	<g id="Visa_1_">
		<path fill="#F9F9F9" d="M63.96,36.079c0,1.049-0.849,1.897-1.897,1.897H8.89c-1.049,0-1.899-0.849-1.899-1.897V4.271
			c0-1.049,0.85-1.899,1.899-1.899h53.173c1.049,0,1.897,0.85,1.897,1.899V36.079z"/>
		<g>
			<g>
				<polygon fill="#1765A7" points="33.208,25.522 30.425,25.522 32.165,14.833 34.948,14.833 				"/>
				<path fill="#1765A7" d="M28.084,14.833l-2.653,7.352l-0.314-1.583v0.001l-0.937-4.808c0,0-0.112-0.962-1.32-0.962h-4.385
					l-0.051,0.181c0,0,1.341,0.279,2.912,1.222l2.417,9.287h2.899l4.428-10.689H28.084z"/>
				<path fill="#1765A7" d="M49.973,25.522h2.557l-2.229-10.689h-2.237c-1.033,0-1.285,0.796-1.285,0.796l-4.149,9.893h2.9
					l0.58-1.587h3.539L49.973,25.522z M46.912,21.742l1.462-4.001l0.823,4.001H46.912z"/>
				<path fill="#1765A7" d="M42.846,17.404l0.397-2.296c0,0-1.226-0.466-2.502-0.466c-1.381,0-4.662,0.604-4.662,3.54
					c0,2.761,3.85,2.795,3.85,4.246s-3.452,1.191-4.593,0.276l-0.414,2.399c0,0,1.242,0.604,3.142,0.604
					c1.899,0,4.765-0.983,4.765-3.659c0-2.778-3.885-3.038-3.885-4.246C38.944,16.592,41.655,16.747,42.846,17.404z"/>
			</g>
			<path fill="#F6A533" d="M25.117,20.603l-0.937-4.808c0,0-0.112-0.962-1.32-0.962h-4.385l-0.051,0.181c0,0,2.108,0.437,4.13,2.073
				C24.487,18.652,25.117,20.603,25.117,20.603z"/>
		</g>
	</g>
	<g id="Mastercard_1_">
		<path fill="#1A457C" d="M122.895,36.079c0,1.049-0.853,1.897-1.9,1.897H67.822c-1.049,0-1.899-0.849-1.899-1.897V4.271
			c0-1.049,0.85-1.899,1.899-1.899h53.172c1.048,0,1.9,0.85,1.9,1.899V36.079z"/>
		<g>
			<polygon fill-rule="evenodd" clip-rule="evenodd" fill="#F7B230" points="101.244,30.395 101.772,30.381 102.293,30.344 
				102.803,30.277 103.312,30.188 103.804,30.075 104.29,29.937 104.766,29.773 105.23,29.593 105.687,29.386 106.127,29.162 
				106.556,28.914 106.972,28.647 107.373,28.362 107.757,28.057 108.13,27.736 108.485,27.396 108.827,27.04 109.147,26.668 
				109.451,26.282 109.737,25.882 110.002,25.465 110.251,25.038 110.474,24.596 110.68,24.141 110.864,23.676 111.026,23.199 
				111.164,22.714 111.277,22.221 111.367,21.714 111.434,21.204 111.472,20.683 111.484,20.156 111.472,19.631 111.434,19.114 
				111.367,18.604 111.277,18.104 111.164,17.611 111.026,17.128 110.864,16.652 110.68,16.19 110.474,15.739 110.251,15.298 
				110.002,14.874 109.737,14.457 109.451,14.057 109.147,13.674 108.827,13.303 108.485,12.946 108.13,12.609 107.757,12.288 
				107.373,11.984 106.972,11.698 106.556,11.433 106.127,11.188 105.687,10.965 105.23,10.757 104.766,10.574 104.29,10.412 
				103.804,10.275 103.312,10.161 102.803,10.071 102.293,10.005 101.772,9.968 101.244,9.954 100.721,9.968 100.2,10.005 
				99.689,10.071 99.186,10.161 98.693,10.275 98.208,10.412 97.735,10.574 97.27,10.757 96.818,10.965 96.381,11.188 
				95.953,11.433 95.539,11.698 95.14,11.984 94.753,12.288 94.384,12.609 94.028,12.946 93.69,13.303 93.372,13.674 93.066,14.057 
				92.784,14.457 92.519,14.874 92.275,15.298 92.046,15.739 91.844,16.19 91.66,16.652 91.501,17.128 91.364,17.611 91.249,18.104 
				91.16,18.604 91.096,19.114 91.057,19.631 91.043,20.156 91.057,20.683 91.096,21.204 91.16,21.714 91.249,22.221 91.364,22.714 
				91.501,23.199 91.66,23.676 91.844,24.141 92.046,24.596 92.275,25.038 92.519,25.465 92.784,25.882 93.066,26.282 
				93.372,26.668 93.69,27.04 94.028,27.396 94.384,27.736 94.753,28.057 95.14,28.362 95.539,28.647 95.953,28.914 96.381,29.162 
				96.818,29.386 97.27,29.593 97.735,29.773 98.208,29.937 98.693,30.075 99.186,30.188 99.689,30.277 100.2,30.344 
				100.721,30.381 101.244,30.395 101.244,30.395 			"/>
			<polygon fill-rule="evenodd" clip-rule="evenodd" fill="#EA1B2E" points="87.571,30.395 88.096,30.381 88.615,30.344 
				89.128,30.277 89.63,30.188 90.122,30.075 90.608,29.937 91.08,29.773 91.547,29.593 91.999,29.386 92.437,29.162 92.864,28.914 
				93.278,28.647 93.677,28.362 94.063,28.057 94.433,27.736 94.788,27.396 95.125,27.04 95.447,26.668 95.748,26.282 
				96.032,25.882 96.296,25.465 96.542,25.038 96.77,24.596 96.974,24.141 97.155,23.676 97.314,23.199 97.451,22.714 
				97.566,22.221 97.655,21.714 97.722,21.204 97.76,20.683 97.772,20.156 97.76,19.631 97.722,19.114 97.655,18.604 97.566,18.104 
				97.451,17.611 97.314,17.128 97.155,16.652 96.974,16.19 96.77,15.739 96.542,15.298 96.296,14.874 96.032,14.457 95.748,14.057 
				95.447,13.674 95.125,13.303 94.788,12.946 94.433,12.609 94.063,12.288 93.677,11.984 93.278,11.698 92.864,11.433 
				92.437,11.188 91.999,10.965 91.547,10.757 91.08,10.574 90.608,10.412 90.122,10.275 89.63,10.161 89.128,10.071 88.615,10.005 
				88.096,9.968 87.571,9.954 87.043,9.968 86.523,10.005 86.013,10.071 85.506,10.161 85.013,10.275 84.528,10.412 84.051,10.574 
				83.586,10.757 83.131,10.965 82.69,11.188 82.262,11.433 81.845,11.698 81.444,11.984 81.058,12.288 80.685,12.609 80.33,12.946 
				79.988,13.303 79.67,13.674 79.365,14.057 79.08,14.457 78.815,14.874 78.566,15.298 78.343,15.739 78.134,16.19 77.953,16.652 
				77.79,17.128 77.652,17.611 77.539,18.104 77.448,18.604 77.384,19.114 77.345,19.631 77.332,20.156 77.345,20.683 
				77.384,21.204 77.448,21.714 77.539,22.221 77.652,22.714 77.79,23.199 77.953,23.676 78.134,24.141 78.343,24.596 
				78.566,25.038 78.815,25.465 79.08,25.882 79.365,26.282 79.67,26.668 79.988,27.04 80.33,27.396 80.685,27.736 81.058,28.057 
				81.444,28.362 81.845,28.647 82.262,28.914 82.69,29.162 83.131,29.386 83.586,29.593 84.051,29.773 84.528,29.937 
				85.013,30.075 85.506,30.188 86.013,30.277 86.523,30.344 87.043,30.381 87.571,30.395 87.571,30.395 			"/>
			<polygon fill-rule="evenodd" clip-rule="evenodd" fill="#F7B230" points="93.212,13.874 98.642,13.874 98.642,13.319 
				93.681,13.319 93.212,13.874 93.212,13.874 			"/>
			<polygon fill-rule="evenodd" clip-rule="evenodd" fill="#F7B230" points="92.398,15.107 98.642,15.107 98.642,14.552 
				92.727,14.552 92.398,15.107 92.398,15.107 			"/>
			<polygon fill-rule="evenodd" clip-rule="evenodd" fill="#F7B230" points="91.792,16.339 98.642,16.339 98.642,15.784 
				92.033,15.784 91.792,16.339 91.792,16.339 			"/>
			<polygon fill-rule="evenodd" clip-rule="evenodd" fill="#F7B230" points="91.374,17.573 98.642,17.573 98.642,17.019 
				91.547,17.019 91.374,17.573 91.374,17.573 			"/>
			<polygon fill-rule="evenodd" clip-rule="evenodd" fill="#F7B230" points="91.616,23.538 98.66,23.538 98.66,22.983 
				91.442,22.983 91.616,23.538 91.616,23.538 			"/>
			<polygon fill-rule="evenodd" clip-rule="evenodd" fill="#F7B230" points="92.136,24.772 98.66,24.772 98.66,24.216 
				91.878,24.216 92.136,24.772 92.136,24.772 			"/>
			<polygon fill-rule="evenodd" clip-rule="evenodd" fill="#F7B230" points="92.868,26.002 98.66,26.002 98.66,25.448 
				92.519,25.448 92.868,26.002 92.868,26.002 			"/>
			<polygon fill-rule="evenodd" clip-rule="evenodd" fill="#F7B230" points="93.873,27.238 98.66,27.238 98.66,26.679 
				93.388,26.679 93.873,27.238 93.873,27.238 			"/>
			<polygon fill-rule="evenodd" clip-rule="evenodd" fill="#F7B230" points="91.129,18.804 98.642,18.804 98.642,18.249 
				91.236,18.249 91.129,18.804 91.129,18.804 			"/>
			<polygon fill-rule="evenodd" clip-rule="evenodd" fill="#F7B230" points="95.707,22.307 98.573,22.307 98.573,21.751 
				95.812,21.751 95.707,22.307 95.707,22.307 			"/>
			<polygon fill-rule="evenodd" clip-rule="evenodd" fill="#F7B230" points="95.936,21.075 98.573,21.075 98.573,20.518 
				96.04,20.518 95.936,21.075 95.936,21.075 			"/>
			<polygon fill-rule="evenodd" clip-rule="evenodd" fill="#F7B230" points="90.94,20.518 91.685,20.518 91.685,21.075 
				90.976,21.075 90.94,20.518 90.94,20.518 			"/>
			<polygon fill-rule="evenodd" clip-rule="evenodd" fill="#FFFFFF" points="89.551,19.845 89.502,19.841 89.453,19.835 
				89.409,19.828 89.365,19.821 89.323,19.814 89.278,19.807 89.233,19.8 89.186,19.793 89.137,19.787 89.081,19.783 89.019,19.779 
				88.955,19.776 88.882,19.776 88.803,19.779 88.713,19.787 88.612,19.793 88.544,19.804 88.479,19.814 88.42,19.835 
				88.368,19.855 88.32,19.879 88.275,19.907 88.239,19.942 88.21,19.973 88.188,20.011 88.17,20.048 88.163,20.09 88.163,20.131 
				88.175,20.176 88.188,20.221 88.216,20.266 88.25,20.311 88.32,20.376 88.403,20.428 88.499,20.473 88.602,20.51 88.713,20.545 
				88.828,20.583 88.94,20.625 89.052,20.668 89.154,20.728 89.249,20.8 89.338,20.887 89.409,20.993 89.463,21.124 89.498,21.28 
				89.513,21.466 89.498,21.683 89.474,21.845 89.433,21.986 89.378,22.117 89.309,22.231 89.229,22.332 89.14,22.417 
				89.044,22.493 88.937,22.559 88.828,22.61 88.713,22.655 88.597,22.689 88.475,22.717 88.358,22.738 88.242,22.749 88.13,22.756 
				88.023,22.758 87.876,22.758 87.736,22.756 87.616,22.756 87.503,22.752 87.398,22.749 87.306,22.741 87.223,22.734 
				87.144,22.725 87.071,22.717 87.005,22.703 86.94,22.692 86.882,22.676 86.822,22.662 86.769,22.641 86.713,22.621 86.655,22.6 
				86.81,21.839 86.841,21.845 86.878,21.854 86.927,21.869 86.985,21.883 87.047,21.897 87.116,21.91 87.191,21.927 87.273,21.94 
				87.361,21.955 87.45,21.968 87.545,21.979 87.64,21.99 87.74,21.993 87.841,21.996 87.94,21.996 88.04,21.993 88.141,21.972 
				88.22,21.945 88.283,21.907 88.331,21.858 88.364,21.81 88.392,21.755 88.409,21.7 88.424,21.648 88.43,21.548 88.398,21.461 
				88.34,21.394 88.254,21.334 88.15,21.283 88.03,21.231 87.896,21.183 87.761,21.127 87.623,21.065 87.492,20.993 87.371,20.903 
				87.262,20.797 87.174,20.666 87.113,20.51 87.082,20.324 87.086,20.104 87.102,19.97 87.126,19.841 87.161,19.725 87.202,19.615 
				87.258,19.511 87.32,19.421 87.393,19.335 87.479,19.259 87.579,19.194 87.689,19.138 87.813,19.087 87.951,19.048 
				88.105,19.018 88.275,18.994 88.461,18.98 88.664,18.976 88.791,18.976 88.908,18.98 89.017,18.984 89.111,18.987 89.199,18.994 
				89.278,19 89.347,19.007 89.409,19.015 89.467,19.021 89.517,19.032 89.562,19.039 89.603,19.045 89.636,19.052 89.668,19.056 
				89.699,19.063 89.726,19.066 89.551,19.845 89.551,19.845 			"/>
			<polyline fill="none" stroke="#FFFFFF" stroke-width="0.0981" stroke-miterlimit="2.6131" points="89.551,19.845 89.551,19.845 
				89.502,19.841 89.453,19.835 89.409,19.828 89.365,19.821 89.323,19.814 89.278,19.807 89.233,19.8 89.186,19.793 89.137,19.787 
				89.081,19.783 89.019,19.779 88.955,19.776 88.882,19.776 88.803,19.779 88.713,19.787 88.612,19.793 88.612,19.793 
				88.544,19.804 88.479,19.814 88.42,19.835 88.368,19.855 88.32,19.879 88.275,19.907 88.239,19.942 88.21,19.973 88.188,20.011 
				88.17,20.048 88.163,20.09 88.163,20.131 88.175,20.176 88.188,20.221 88.216,20.266 88.25,20.311 88.25,20.311 88.32,20.376 
				88.403,20.428 88.499,20.473 88.602,20.51 88.713,20.545 88.828,20.583 88.94,20.625 89.052,20.668 89.154,20.728 89.249,20.8 
				89.338,20.887 89.409,20.993 89.463,21.124 89.498,21.28 89.513,21.466 89.498,21.683 89.498,21.683 89.474,21.845 
				89.433,21.986 89.378,22.117 89.309,22.231 89.229,22.332 89.14,22.417 89.044,22.493 88.937,22.559 88.828,22.61 88.713,22.655 
				88.597,22.689 88.475,22.717 88.358,22.738 88.242,22.749 88.13,22.756 88.023,22.758 88.023,22.758 87.876,22.758 
				87.736,22.756 87.616,22.756 87.503,22.752 87.398,22.749 87.306,22.741 87.223,22.734 87.144,22.725 87.071,22.717 
				87.005,22.703 86.94,22.692 86.882,22.676 86.822,22.662 86.769,22.641 86.713,22.621 86.655,22.6 86.81,21.839 86.81,21.839 
				86.841,21.845 86.878,21.854 86.927,21.869 86.985,21.883 87.047,21.897 87.116,21.91 87.191,21.927 87.273,21.94 87.361,21.955 
				87.45,21.968 87.545,21.979 87.64,21.99 87.74,21.993 87.841,21.996 87.94,21.996 88.04,21.993 88.04,21.993 88.141,21.972 
				88.22,21.945 88.283,21.907 88.331,21.858 88.364,21.81 88.392,21.755 88.409,21.7 88.424,21.648 88.424,21.648 88.43,21.548 
				88.398,21.461 88.34,21.394 88.254,21.334 88.15,21.283 88.03,21.231 87.896,21.183 87.761,21.127 87.623,21.065 87.492,20.993 
				87.371,20.903 87.262,20.797 87.174,20.666 87.113,20.51 87.082,20.324 87.086,20.104 87.086,20.104 87.102,19.97 87.126,19.841 
				87.161,19.725 87.202,19.615 87.258,19.511 87.32,19.421 87.393,19.335 87.479,19.259 87.579,19.194 87.689,19.138 
				87.813,19.087 87.951,19.048 88.105,19.018 88.275,18.994 88.461,18.98 88.664,18.976 88.664,18.976 88.791,18.976 88.908,18.98 
				89.017,18.984 89.111,18.987 89.199,18.994 89.278,19 89.347,19.007 89.409,19.015 89.467,19.021 89.517,19.032 89.562,19.039 
				89.603,19.045 89.636,19.052 89.668,19.056 89.699,19.063 89.726,19.066 89.551,19.845 			"/>
			<polygon fill-rule="evenodd" clip-rule="evenodd" fill="#FFFFFF" points="90.367,18.215 91.322,18.215 91.181,19.048 
				91.757,19.048 91.633,19.828 91.025,19.811 90.695,21.734 90.691,21.804 90.709,21.862 90.743,21.907 90.788,21.945 
				90.852,21.968 90.919,21.99 90.995,22.003 91.077,22.011 91.153,22.007 91.225,22 91.284,21.99 91.341,21.976 91.385,21.962 
				91.415,21.952 91.437,21.945 91.442,21.94 91.322,22.583 91.299,22.6 91.274,22.614 91.249,22.628 91.226,22.641 91.202,22.651 
				91.176,22.662 91.143,22.672 91.112,22.683 91.077,22.692 91.043,22.699 91.003,22.707 90.96,22.714 90.915,22.721 
				90.864,22.728 90.81,22.734 90.751,22.741 90.487,22.741 90.35,22.73 90.229,22.717 90.12,22.697 90.025,22.672 89.946,22.641 
				89.883,22.607 89.822,22.566 89.778,22.52 89.743,22.473 89.719,22.414 89.7,22.354 89.692,22.289 89.688,22.217 89.688,22.142 
				89.699,22.062 89.709,21.976 90.367,18.215 90.367,18.215 			"/>
			<polyline fill="none" stroke="#FFFFFF" stroke-width="0.0981" stroke-miterlimit="2.6131" points="90.367,18.215 91.322,18.215 
				91.181,19.048 91.757,19.048 91.633,19.828 91.025,19.811 90.695,21.734 90.695,21.734 90.691,21.804 90.709,21.862 
				90.743,21.907 90.788,21.945 90.852,21.968 90.919,21.99 90.995,22.003 91.077,22.011 91.077,22.011 91.153,22.007 91.225,22 
				91.284,21.99 91.341,21.976 91.385,21.962 91.415,21.952 91.437,21.945 91.442,21.94 91.322,22.583 91.322,22.583 91.299,22.6 
				91.274,22.614 91.249,22.628 91.226,22.641 91.202,22.651 91.176,22.662 91.143,22.672 91.112,22.683 91.077,22.692 
				91.043,22.699 91.003,22.707 90.96,22.714 90.915,22.721 90.864,22.728 90.81,22.734 90.751,22.741 90.487,22.741 90.487,22.741 
				90.35,22.73 90.229,22.717 90.12,22.697 90.025,22.672 89.946,22.641 89.883,22.607 89.822,22.566 89.778,22.52 89.743,22.473 
				89.719,22.414 89.7,22.354 89.692,22.289 89.688,22.217 89.688,22.142 89.699,22.062 89.709,21.976 90.367,18.215 			"/>
			<polyline fill="none" stroke="#FFFFFF" stroke-width="0.0981" stroke-miterlimit="2.6131" points="92.519,21.127 92.519,21.127 
				92.51,21.187 92.507,21.248 92.511,21.313 92.525,21.379 92.552,21.444 92.578,21.507 92.614,21.572 92.657,21.63 92.706,21.69 
				92.758,21.742 92.811,21.793 92.873,21.834 92.936,21.873 93.006,21.903 93.074,21.927 93.143,21.94 93.143,21.94 93.233,21.955 
				93.317,21.966 93.407,21.976 93.498,21.983 93.588,21.986 93.681,21.986 93.771,21.983 93.862,21.976 93.955,21.962 
				94.05,21.945 94.146,21.925 94.239,21.894 94.336,21.854 94.437,21.813 94.532,21.759 94.634,21.7 94.494,22.549 94.494,22.549 
				94.439,22.576 94.384,22.604 94.328,22.624 94.277,22.645 94.226,22.662 94.17,22.679 94.116,22.692 94.056,22.703 
				93.994,22.714 93.925,22.721 93.854,22.728 93.772,22.734 93.683,22.738 93.59,22.738 93.484,22.741 93.372,22.741 
				93.372,22.741 93.201,22.738 93.029,22.721 92.856,22.697 92.684,22.655 92.516,22.604 92.353,22.537 92.197,22.452 
				92.053,22.352 91.919,22.235 91.802,22.093 91.702,21.934 91.618,21.751 91.56,21.548 91.521,21.317 91.512,21.062 91.529,20.78 
				91.529,20.78 91.543,20.668 91.564,20.542 91.592,20.407 91.629,20.262 91.681,20.114 91.743,19.966 91.822,19.814 
				91.919,19.669 92.029,19.531 92.164,19.4 92.314,19.283 92.488,19.18 92.688,19.093 92.911,19.032 93.16,18.991 93.439,18.976 
				93.439,18.976 93.573,18.98 93.716,18.994 93.856,19.018 93.998,19.052 94.137,19.104 94.271,19.166 94.394,19.249 
				94.508,19.345 94.611,19.463 94.697,19.601 94.767,19.759 94.814,19.942 94.842,20.148 94.846,20.382 94.822,20.645 
				94.771,20.936 94.753,21.146 92.239,21.146 92.398,20.466 93.909,20.466 93.909,20.466 93.916,20.38 93.912,20.297 
				93.905,20.221 93.892,20.152 93.866,20.086 93.844,20.027 93.809,19.976 93.772,19.928 93.733,19.886 93.688,19.852 
				93.637,19.821 93.584,19.793 93.529,19.773 93.474,19.759 93.415,19.75 93.354,19.742 93.354,19.742 93.287,19.745 
				93.227,19.755 93.168,19.77 93.108,19.79 93.05,19.818 92.999,19.849 92.945,19.886 92.903,19.928 92.856,19.976 92.814,20.027 
				92.779,20.083 92.746,20.143 92.715,20.204 92.69,20.272 92.671,20.342 92.657,20.415 92.519,21.127 			"/>
			<polygon fill-rule="evenodd" clip-rule="evenodd" fill="#FFFFFF" points="100.741,19.256 100.695,19.232 100.651,19.211 
				100.605,19.187 100.551,19.162 100.501,19.142 100.441,19.122 100.384,19.1 100.321,19.08 100.256,19.063 100.189,19.048 
				100.118,19.035 100.046,19.024 99.966,19.018 99.887,19.011 99.804,19.011 99.718,19.011 99.632,19.011 99.541,19.018 
				99.45,19.028 99.353,19.045 99.256,19.073 99.158,19.11 99.062,19.159 98.965,19.221 98.872,19.297 98.783,19.387 98.697,19.497 
				98.614,19.625 98.538,19.776 98.466,19.948 98.402,20.143 98.346,20.362 98.325,20.486 98.311,20.607 98.305,20.728 
				98.309,20.845 98.317,20.962 98.342,21.073 98.373,21.176 98.411,21.28 98.463,21.373 98.524,21.461 98.597,21.542 
				98.682,21.614 98.774,21.676 98.88,21.728 98.998,21.772 99.13,21.804 99.174,21.813 99.226,21.824 99.287,21.831 99.356,21.839 
				99.431,21.845 99.51,21.845 99.597,21.845 99.684,21.839 99.773,21.827 99.863,21.81 99.948,21.787 100.034,21.759 100.12,21.72 
				100.2,21.676 100.272,21.621 100.342,21.558 100.186,22.479 100.167,22.497 100.146,22.518 100.118,22.542 100.085,22.561 
				100.049,22.589 99.999,22.614 99.946,22.638 99.883,22.658 99.804,22.683 99.715,22.699 99.61,22.714 99.49,22.728 
				99.356,22.734 99.201,22.738 99.025,22.734 98.831,22.725 98.674,22.707 98.514,22.672 98.354,22.621 98.197,22.551 
				98.045,22.469 97.901,22.365 97.764,22.245 97.635,22.107 97.521,21.952 97.426,21.78 97.343,21.586 97.279,21.375 
				97.239,21.146 97.226,20.9 97.232,20.631 97.27,20.345 97.298,20.204 97.328,20.066 97.362,19.932 97.398,19.804 97.436,19.684 
				97.479,19.563 97.525,19.449 97.574,19.342 97.624,19.235 97.676,19.134 97.735,19.039 97.798,18.949 97.859,18.862 
				97.928,18.78 97.996,18.704 98.069,18.632 98.148,18.562 98.229,18.497 98.311,18.438 98.397,18.383 98.49,18.331 98.583,18.288 
				98.682,18.246 98.78,18.208 98.886,18.173 98.992,18.146 99.104,18.121 99.222,18.101 99.338,18.083 99.462,18.07 99.587,18.063 
				99.718,18.059 99.827,18.063 99.935,18.07 100.039,18.08 100.142,18.094 100.238,18.107 100.333,18.128 100.42,18.146 
				100.505,18.166 100.583,18.187 100.651,18.208 100.717,18.229 100.773,18.249 100.821,18.266 100.862,18.28 100.893,18.294 
				100.915,18.301 100.741,19.256 100.741,19.256 			"/>
			<polyline fill="none" stroke="#FFFFFF" stroke-width="0.0981" stroke-miterlimit="2.6131" points="100.741,19.256 
				100.741,19.256 100.695,19.232 100.651,19.211 100.605,19.187 100.551,19.162 100.501,19.142 100.441,19.122 100.384,19.1 
				100.321,19.08 100.256,19.063 100.189,19.048 100.118,19.035 100.046,19.024 99.966,19.018 99.887,19.011 99.804,19.011 
				99.718,19.011 99.718,19.011 99.632,19.011 99.541,19.018 99.45,19.028 99.353,19.045 99.256,19.073 99.158,19.11 99.062,19.159 
				98.965,19.221 98.872,19.297 98.783,19.387 98.697,19.497 98.614,19.625 98.538,19.776 98.466,19.948 98.402,20.143 
				98.346,20.362 98.346,20.362 98.325,20.486 98.311,20.607 98.305,20.728 98.309,20.845 98.317,20.962 98.342,21.073 
				98.373,21.176 98.411,21.28 98.463,21.373 98.524,21.461 98.597,21.542 98.682,21.614 98.774,21.676 98.88,21.728 98.998,21.772 
				99.13,21.804 99.13,21.804 99.174,21.813 99.226,21.824 99.287,21.831 99.356,21.839 99.431,21.845 99.51,21.845 99.597,21.845 
				99.684,21.839 99.773,21.827 99.863,21.81 99.948,21.787 100.034,21.759 100.12,21.72 100.2,21.676 100.272,21.621 
				100.342,21.558 100.186,22.479 100.186,22.479 100.167,22.497 100.146,22.518 100.118,22.542 100.085,22.561 100.049,22.589 
				99.999,22.614 99.946,22.638 99.883,22.658 99.804,22.683 99.715,22.699 99.61,22.714 99.49,22.728 99.356,22.734 99.201,22.738 
				99.025,22.734 98.831,22.725 98.831,22.725 98.674,22.707 98.514,22.672 98.354,22.621 98.197,22.551 98.045,22.469 
				97.901,22.365 97.764,22.245 97.635,22.107 97.521,21.952 97.426,21.78 97.343,21.586 97.279,21.375 97.239,21.146 97.226,20.9 
				97.232,20.631 97.27,20.345 97.27,20.345 97.298,20.204 97.328,20.066 97.362,19.932 97.398,19.804 97.436,19.684 97.479,19.563 
				97.525,19.449 97.574,19.342 97.624,19.235 97.676,19.134 97.735,19.039 97.798,18.949 97.859,18.862 97.928,18.78 
				97.996,18.704 98.069,18.632 98.148,18.562 98.229,18.497 98.311,18.438 98.397,18.383 98.49,18.331 98.583,18.288 
				98.682,18.246 98.78,18.208 98.886,18.173 98.992,18.146 99.104,18.121 99.222,18.101 99.338,18.083 99.462,18.07 99.587,18.063 
				99.718,18.059 99.718,18.059 99.827,18.063 99.935,18.07 100.039,18.08 100.142,18.094 100.238,18.107 100.333,18.128 
				100.42,18.146 100.505,18.166 100.583,18.187 100.651,18.208 100.717,18.229 100.773,18.249 100.821,18.266 100.862,18.28 
				100.893,18.294 100.915,18.301 100.741,19.256 			"/>
			<polygon fill-rule="evenodd" clip-rule="evenodd" fill="#FFFFFF" points="109.229,22.741 108.274,22.741 108.346,22.359 
				108.346,22.324 108.288,22.395 108.23,22.455 108.172,22.51 108.11,22.559 108.048,22.604 107.984,22.641 107.923,22.672 
				107.857,22.703 107.792,22.728 107.728,22.745 107.66,22.762 107.592,22.771 107.523,22.782 107.457,22.79 107.388,22.793 
				107.318,22.793 107.141,22.779 106.975,22.741 106.824,22.683 106.687,22.604 106.562,22.503 106.451,22.387 106.354,22.259 
				106.271,22.115 106.202,21.958 106.147,21.797 106.109,21.628 106.082,21.452 106.072,21.276 106.075,21.097 106.094,20.921 
				106.124,20.745 106.175,20.542 106.239,20.349 106.31,20.172 106.396,20.007 106.486,19.852 106.588,19.714 106.695,19.591 
				106.81,19.477 106.93,19.376 107.058,19.291 107.189,19.214 107.318,19.155 107.457,19.107 107.596,19.077 107.733,19.056 
				107.876,19.048 107.977,19.052 108.071,19.063 108.16,19.08 108.245,19.104 108.323,19.132 108.392,19.162 108.462,19.201 
				108.522,19.239 108.578,19.279 108.63,19.325 108.674,19.369 108.717,19.414 108.75,19.459 108.782,19.504 108.81,19.545 
				108.831,19.587 108.831,19.587 109.07,18.232 110.01,18.232 109.229,22.741 109.229,22.741 			"/>
			<polyline fill="none" stroke="#FFFFFF" stroke-width="0.0981" stroke-miterlimit="2.6131" points="109.229,22.741 
				108.274,22.741 108.346,22.359 108.346,22.324 108.346,22.324 108.288,22.395 108.23,22.455 108.172,22.51 108.11,22.559 
				108.048,22.604 107.984,22.641 107.923,22.672 107.857,22.703 107.792,22.728 107.728,22.745 107.66,22.762 107.592,22.771 
				107.523,22.782 107.457,22.79 107.388,22.793 107.318,22.793 107.318,22.793 107.141,22.779 106.975,22.741 106.824,22.683 
				106.687,22.604 106.562,22.503 106.451,22.387 106.354,22.259 106.271,22.115 106.202,21.958 106.147,21.797 106.109,21.628 
				106.082,21.452 106.072,21.276 106.075,21.097 106.094,20.921 106.124,20.745 106.124,20.745 106.175,20.542 106.239,20.349 
				106.31,20.172 106.396,20.007 106.486,19.852 106.588,19.714 106.695,19.591 106.81,19.477 106.93,19.376 107.058,19.291 
				107.189,19.214 107.318,19.155 107.457,19.107 107.596,19.077 107.733,19.056 107.876,19.048 107.876,19.048 107.977,19.052 
				108.071,19.063 108.16,19.08 108.245,19.104 108.323,19.132 108.392,19.162 108.462,19.201 108.522,19.239 108.578,19.279 
				108.63,19.325 108.674,19.369 108.717,19.414 108.75,19.459 108.782,19.504 108.81,19.545 108.831,19.587 108.831,19.587 
				109.07,18.232 110.01,18.232 109.229,22.741 			"/>
			<polygon fill-rule="evenodd" clip-rule="evenodd" fill="#F7B230" points="107.668,21.907 107.765,21.9 107.854,21.88 
				107.937,21.854 108.018,21.817 108.089,21.776 108.157,21.724 108.224,21.667 108.282,21.603 108.334,21.534 108.381,21.458 
				108.425,21.379 108.465,21.297 108.499,21.209 108.528,21.121 108.551,21.027 108.569,20.936 108.585,20.839 108.596,20.738 
				108.596,20.645 108.592,20.549 108.582,20.459 108.569,20.372 108.544,20.29 108.516,20.211 108.481,20.143 108.44,20.076 
				108.396,20.021 108.346,19.973 108.286,19.932 108.224,19.904 108.157,19.886 108.085,19.879 107.992,19.886 107.905,19.9 
				107.828,19.928 107.747,19.962 107.679,20.007 107.61,20.062 107.55,20.121 107.492,20.186 107.44,20.262 107.392,20.342 
				107.348,20.424 107.309,20.514 107.275,20.607 107.247,20.701 107.22,20.8 107.198,20.9 107.181,21.052 107.189,21.217 
				107.213,21.386 107.258,21.548 107.326,21.69 107.417,21.804 107.53,21.88 107.668,21.907 107.668,21.907 			"/>
			<polygon fill-rule="evenodd" clip-rule="evenodd" fill="#FFFFFF" points="86.496,21.976 86.357,22.741 85.49,22.741 85.513,22.6 
				85.53,22.473 85.543,22.376 85.558,22.324 85.51,22.379 85.454,22.434 85.39,22.486 85.318,22.534 85.233,22.583 85.147,22.624 
				85.058,22.666 84.966,22.699 84.865,22.73 84.765,22.756 84.666,22.776 84.562,22.79 84.462,22.797 84.361,22.8 84.265,22.79 
				84.171,22.776 84.051,22.745 83.94,22.71 83.843,22.666 83.76,22.614 83.683,22.559 83.614,22.497 83.559,22.431 83.51,22.362 
				83.469,22.289 83.434,22.213 83.407,22.139 83.387,22.062 83.372,21.983 83.361,21.903 83.354,21.827 83.354,21.751 
				83.365,21.617 83.387,21.49 83.42,21.369 83.466,21.252 83.521,21.142 83.582,21.042 83.655,20.946 83.738,20.859 83.824,20.78 
				83.92,20.707 84.019,20.642 84.123,20.586 84.234,20.539 84.349,20.5 84.465,20.469 84.585,20.448 84.593,20.448 84.609,20.444 
				84.633,20.441 84.672,20.439 84.714,20.431 84.761,20.428 84.812,20.42 84.873,20.415 84.931,20.407 84.988,20.4 85.051,20.396 
				85.106,20.39 85.16,20.387 85.214,20.382 85.261,20.38 85.299,20.38 85.379,20.38 85.462,20.382 85.538,20.387 85.613,20.387 
				85.676,20.39 85.723,20.393 85.757,20.396 85.767,20.396 85.776,20.372 85.795,20.311 85.814,20.238 85.819,20.172 
				85.807,20.098 85.776,20.027 85.733,19.966 85.68,19.914 85.613,19.87 85.542,19.838 85.457,19.818 85.368,19.811 85.271,19.807 
				85.169,19.804 85.062,19.804 84.95,19.807 84.838,19.814 84.727,19.825 84.617,19.835 84.509,19.849 84.406,19.863 
				84.307,19.879 84.216,19.896 84.135,19.914 84.059,19.936 83.996,19.956 83.947,19.98 83.91,20 84.155,19.169 84.23,19.138 
				84.307,19.11 84.39,19.087 84.473,19.069 84.555,19.052 84.645,19.039 84.733,19.024 84.826,19.018 84.924,19.011 85.022,19.007 
				85.126,19.003 85.233,19.003 85.346,19.003 85.457,19.003 85.579,19.007 85.699,19.011 85.795,19.018 85.899,19.035 
				86.008,19.06 86.114,19.09 86.222,19.132 86.326,19.18 86.431,19.239 86.527,19.304 86.612,19.38 86.688,19.463 86.759,19.555 
				86.81,19.659 86.844,19.77 86.865,19.886 86.865,20.018 86.844,20.156 86.496,21.976 86.496,21.976 			"/>
			<polyline fill="none" stroke="#FFFFFF" stroke-width="0.0981" stroke-miterlimit="2.6131" points="86.496,21.976 86.357,22.741 
				85.49,22.741 85.49,22.741 85.513,22.6 85.53,22.473 85.543,22.376 85.558,22.324 85.558,22.324 85.51,22.379 85.454,22.434 
				85.39,22.486 85.318,22.534 85.233,22.583 85.147,22.624 85.058,22.666 84.966,22.699 84.865,22.73 84.765,22.756 84.666,22.776 
				84.562,22.79 84.462,22.797 84.361,22.8 84.265,22.79 84.171,22.776 84.171,22.776 84.051,22.745 83.94,22.71 83.843,22.666 
				83.76,22.614 83.683,22.559 83.614,22.497 83.559,22.431 83.51,22.362 83.469,22.289 83.434,22.213 83.407,22.139 83.387,22.062 
				83.372,21.983 83.361,21.903 83.354,21.827 83.354,21.751 83.354,21.751 83.365,21.617 83.387,21.49 83.42,21.369 83.466,21.252 
				83.521,21.142 83.582,21.042 83.655,20.946 83.738,20.859 83.824,20.78 83.92,20.707 84.019,20.642 84.123,20.586 84.234,20.539 
				84.349,20.5 84.465,20.469 84.585,20.448 84.585,20.448 84.593,20.448 84.609,20.444 84.633,20.441 84.672,20.439 84.714,20.431 
				84.761,20.428 84.812,20.42 84.873,20.415 84.931,20.407 84.988,20.4 85.051,20.396 85.106,20.39 85.16,20.387 85.214,20.382 
				85.261,20.38 85.299,20.38 85.299,20.38 85.379,20.38 85.462,20.382 85.538,20.387 85.613,20.387 85.676,20.39 85.723,20.393 
				85.757,20.396 85.767,20.396 85.767,20.396 85.776,20.372 85.795,20.311 85.814,20.238 85.819,20.172 85.819,20.172 
				85.807,20.098 85.776,20.027 85.733,19.966 85.68,19.914 85.613,19.87 85.542,19.838 85.457,19.818 85.368,19.811 85.368,19.811 
				85.271,19.807 85.169,19.804 85.062,19.804 84.95,19.807 84.838,19.814 84.727,19.825 84.617,19.835 84.509,19.849 
				84.406,19.863 84.307,19.879 84.216,19.896 84.135,19.914 84.059,19.936 83.996,19.956 83.947,19.98 83.91,20 84.155,19.169 
				84.155,19.169 84.23,19.138 84.307,19.11 84.39,19.087 84.473,19.069 84.555,19.052 84.645,19.039 84.733,19.024 84.826,19.018 
				84.924,19.011 85.022,19.007 85.126,19.003 85.233,19.003 85.346,19.003 85.457,19.003 85.579,19.007 85.699,19.011 
				85.699,19.011 85.795,19.018 85.899,19.035 86.008,19.06 86.114,19.09 86.222,19.132 86.326,19.18 86.431,19.239 86.527,19.304 
				86.612,19.38 86.688,19.463 86.759,19.555 86.81,19.659 86.844,19.77 86.865,19.886 86.865,20.018 86.844,20.156 86.496,21.976 
							"/>
			<polygon fill-rule="evenodd" clip-rule="evenodd" fill="#EA1B2E" points="85.666,21.075 85.662,21.06 85.647,21.042 
				85.626,21.031 85.593,21.024 85.555,21.018 85.51,21.013 85.457,21.013 85.407,21.013 85.35,21.018 85.292,21.024 85.236,21.031 
				85.182,21.038 85.13,21.045 85.081,21.055 85.04,21.065 85.002,21.075 84.979,21.083 84.95,21.093 84.912,21.107 84.875,21.124 
				84.83,21.146 84.785,21.169 84.737,21.193 84.692,21.221 84.645,21.255 84.601,21.29 84.558,21.331 84.521,21.373 84.486,21.417 
				84.462,21.466 84.44,21.521 84.43,21.576 84.428,21.693 84.445,21.787 84.479,21.854 84.524,21.907 84.576,21.94 84.633,21.962 
				84.688,21.972 84.745,21.976 84.849,21.972 84.941,21.962 85.031,21.948 85.109,21.927 85.178,21.903 85.245,21.873 
				85.303,21.841 85.355,21.804 85.4,21.77 85.441,21.728 85.476,21.69 85.503,21.648 85.527,21.606 85.547,21.566 85.565,21.528 
				85.575,21.49 85.604,21.39 85.626,21.276 85.647,21.166 85.666,21.075 85.666,21.075 			"/>
			<polygon fill-rule="evenodd" clip-rule="evenodd" fill="#FFFFFF" points="79.242,22.741 78.305,22.741 79.088,18.215 
				80.718,18.215 80.872,20.9 82,18.215 83.702,18.215 82.902,22.741 81.966,22.741 82.557,19.359 82.521,19.359 81.118,22.741 
				80.059,22.741 80.054,22.6 80.028,22.224 79.996,21.69 79.962,21.075 79.928,20.459 79.896,19.918 79.872,19.525 79.865,19.359 
				79.856,19.359 79.835,19.359 79.814,19.359 79.814,19.359 79.242,22.741 79.242,22.741 			"/>
			<polyline fill="none" stroke="#FFFFFF" stroke-width="0.0981" stroke-miterlimit="2.6131" points="79.242,22.741 78.305,22.741 
				79.088,18.215 80.718,18.215 80.872,20.9 82,18.215 83.702,18.215 82.902,22.741 81.966,22.741 82.557,19.359 82.521,19.359 
				81.118,22.741 80.059,22.741 80.059,22.741 80.054,22.6 80.028,22.224 79.996,21.69 79.962,21.075 79.928,20.459 79.896,19.918 
				79.872,19.525 79.865,19.359 79.865,19.359 79.856,19.359 79.835,19.359 79.814,19.359 79.814,19.359 79.242,22.741 			"/>
			<polygon fill-rule="evenodd" clip-rule="evenodd" fill="#FFFFFF" points="103.606,21.976 103.466,22.741 102.601,22.741 
				102.607,22.6 102.611,22.476 102.611,22.383 102.618,22.341 102.573,22.395 102.52,22.445 102.459,22.493 102.39,22.542 
				102.317,22.586 102.235,22.628 102.148,22.669 102.063,22.703 101.97,22.73 101.873,22.758 101.775,22.776 101.68,22.79 
				101.578,22.797 101.482,22.8 101.389,22.79 101.297,22.776 101.173,22.745 101.063,22.71 100.967,22.666 100.877,22.614 
				100.8,22.559 100.734,22.497 100.68,22.431 100.631,22.362 100.59,22.289 100.559,22.213 100.531,22.139 100.515,22.062 
				100.501,21.983 100.49,21.903 100.483,21.827 100.483,21.751 100.49,21.617 100.512,21.49 100.542,21.369 100.587,21.252 
				100.639,21.142 100.706,21.042 100.777,20.946 100.855,20.859 100.945,20.78 101.038,20.707 101.138,20.642 101.244,20.586 
				101.353,20.539 101.465,20.5 101.578,20.469 101.696,20.448 101.703,20.448 101.721,20.444 101.746,20.441 101.779,20.439 
				101.824,20.431 101.873,20.428 101.925,20.42 101.979,20.415 102.038,20.407 102.1,20.4 102.158,20.396 102.218,20.39 
				102.272,20.387 102.32,20.382 102.368,20.38 102.407,20.38 102.489,20.38 102.573,20.382 102.652,20.387 102.729,20.387 
				102.791,20.39 102.848,20.393 102.88,20.396 102.895,20.396 102.899,20.372 102.911,20.311 102.92,20.238 102.928,20.172 
				102.913,20.098 102.887,20.027 102.84,19.966 102.789,19.914 102.729,19.87 102.654,19.838 102.579,19.818 102.496,19.811 
				102.399,19.807 102.296,19.804 102.189,19.804 102.079,19.807 101.966,19.814 101.854,19.825 101.746,19.835 101.639,19.849 
				101.534,19.863 101.434,19.879 101.347,19.896 101.262,19.914 101.187,19.936 101.124,19.956 101.076,19.98 101.038,20 
				101.281,19.169 101.355,19.138 101.434,19.11 101.513,19.087 101.598,19.069 101.683,19.052 101.77,19.039 101.858,19.024 
				101.951,19.018 102.048,19.011 102.148,19.007 102.247,19.003 102.354,19.003 102.462,19.003 102.573,19.003 102.689,19.007 
				102.809,19.011 102.903,19.018 103.008,19.035 103.112,19.06 103.225,19.09 103.332,19.132 103.437,19.18 103.541,19.239 
				103.638,19.304 103.724,19.38 103.804,19.463 103.873,19.555 103.925,19.659 103.962,19.77 103.986,19.886 103.986,20.018 
				103.969,20.156 103.606,21.976 103.606,21.976 			"/>
			<polygon fill-rule="evenodd" clip-rule="evenodd" fill="#FFFFFF" points="103.466,22.766 103.485,22.745 103.628,21.979 
				103.586,21.972 103.444,22.738 103.466,22.717 103.466,22.766 103.483,22.762 103.485,22.745 103.466,22.766 103.466,22.766 			
				"/>
			<polygon fill-rule="evenodd" clip-rule="evenodd" fill="#FFFFFF" points="102.579,22.741 102.601,22.766 103.466,22.766 
				103.466,22.717 102.601,22.717 102.62,22.741 102.579,22.741 102.575,22.766 102.601,22.766 102.579,22.741 102.579,22.741 			
				"/>
			<polygon fill-rule="evenodd" clip-rule="evenodd" fill="#FFFFFF" points="102.636,22.354 102.604,22.328 102.59,22.383 
				102.586,22.476 102.586,22.6 102.579,22.741 102.62,22.741 102.628,22.6 102.636,22.476 102.631,22.383 102.631,22.354 
				102.601,22.328 102.636,22.354 102.636,22.354 			"/>
			<polygon fill-rule="evenodd" clip-rule="evenodd" fill="#FFFFFF" points="101.293,22.797 101.293,22.797 101.389,22.811 
				101.482,22.82 101.578,22.817 101.68,22.811 101.779,22.797 101.876,22.779 101.972,22.752 102.07,22.725 102.154,22.689 
				102.244,22.648 102.327,22.607 102.399,22.559 102.473,22.51 102.535,22.462 102.59,22.407 102.636,22.354 102.601,22.328 
				102.555,22.379 102.508,22.427 102.444,22.476 102.38,22.524 102.307,22.566 102.224,22.607 102.143,22.648 102.056,22.683 
				101.966,22.71 101.87,22.738 101.772,22.756 101.68,22.768 101.578,22.776 101.482,22.779 101.389,22.768 101.3,22.756 
				101.3,22.756 101.293,22.797 101.293,22.797 			"/>
			<polygon fill-rule="evenodd" clip-rule="evenodd" fill="#FFFFFF" points="100.458,21.751 100.458,21.751 100.462,21.827 
				100.469,21.903 100.479,21.986 100.493,22.065 100.512,22.142 100.539,22.221 100.569,22.299 100.613,22.373 100.663,22.445 
				100.717,22.51 100.787,22.576 100.866,22.631 100.956,22.687 101.055,22.73 101.168,22.766 101.293,22.797 101.3,22.756 
				101.177,22.725 101.071,22.689 100.976,22.645 100.886,22.596 100.813,22.542 100.751,22.482 100.695,22.417 100.649,22.352 
				100.611,22.279 100.579,22.207 100.551,22.135 100.535,22.059 100.521,21.979 100.512,21.903 100.505,21.827 100.507,21.751 
				100.507,21.751 100.458,21.751 100.458,21.751 			"/>
			<polygon fill-rule="evenodd" clip-rule="evenodd" fill="#FFFFFF" points="101.696,20.428 101.696,20.428 101.577,20.448 
				101.459,20.48 101.347,20.518 101.234,20.566 101.127,20.62 101.023,20.69 100.932,20.763 100.842,20.845 100.759,20.931 
				100.688,21.027 100.617,21.131 100.565,21.245 100.521,21.362 100.49,21.485 100.469,21.617 100.458,21.751 100.507,21.751 
				100.512,21.617 100.531,21.493 100.562,21.375 100.606,21.259 100.659,21.151 100.721,21.055 100.793,20.959 100.87,20.873 
				100.958,20.797 101.053,20.724 101.147,20.663 101.256,20.607 101.358,20.559 101.474,20.521 101.582,20.49 101.696,20.469 
				101.696,20.469 101.696,20.428 101.696,20.428 			"/>
			<polygon fill-rule="evenodd" clip-rule="evenodd" fill="#FFFFFF" points="102.407,20.355 102.407,20.355 102.368,20.355 
				102.32,20.362 102.272,20.367 102.218,20.369 102.158,20.376 102.1,20.38 102.038,20.387 101.979,20.393 101.925,20.4 
				101.873,20.407 101.824,20.411 101.779,20.418 101.746,20.42 101.718,20.424 101.703,20.428 101.696,20.428 101.696,20.469 
				101.703,20.469 101.725,20.466 101.746,20.463 101.779,20.459 101.824,20.452 101.873,20.448 101.925,20.441 101.979,20.434 
				102.038,20.428 102.1,20.42 102.158,20.418 102.218,20.411 102.272,20.407 102.32,20.404 102.368,20.404 102.407,20.404 
				102.407,20.404 102.407,20.355 102.407,20.355 			"/>
			<polygon fill-rule="evenodd" clip-rule="evenodd" fill="#FFFFFF" points="102.873,20.393 102.895,20.376 102.88,20.376 
				102.848,20.372 102.791,20.369 102.729,20.362 102.652,20.362 102.573,20.362 102.489,20.355 102.407,20.355 102.407,20.404 
				102.489,20.404 102.573,20.404 102.652,20.411 102.729,20.411 102.791,20.411 102.848,20.415 102.88,20.418 102.895,20.418 
				102.913,20.4 102.895,20.418 102.911,20.42 102.913,20.4 102.873,20.393 102.873,20.393 			"/>
			<polygon fill-rule="evenodd" clip-rule="evenodd" fill="#FFFFFF" points="102.909,20.172 102.903,20.172 102.899,20.238 
				102.889,20.308 102.88,20.369 102.873,20.393 102.913,20.4 102.92,20.376 102.932,20.313 102.94,20.238 102.952,20.172 
				102.947,20.172 102.909,20.172 102.909,20.172 			"/>
			<polygon fill-rule="evenodd" clip-rule="evenodd" fill="#FFFFFF" points="102.496,19.832 102.496,19.835 102.575,19.838 
				102.648,19.859 102.717,19.89 102.775,19.932 102.824,19.98 102.865,20.038 102.895,20.1 102.909,20.172 102.947,20.172 
				102.936,20.094 102.909,20.018 102.858,19.952 102.803,19.896 102.738,19.849 102.661,19.818 102.582,19.797 102.496,19.787 
				102.496,19.79 102.496,19.832 102.496,19.832 			"/>
			<polygon fill-rule="evenodd" clip-rule="evenodd" fill="#FFFFFF" points="101.017,19.997 101.053,20.018 101.087,20 
				101.132,19.976 101.188,19.956 101.266,19.936 101.349,19.918 101.438,19.9 101.538,19.883 101.639,19.87 101.746,19.855 
				101.854,19.845 101.966,19.835 102.079,19.828 102.189,19.828 102.296,19.828 102.399,19.828 102.496,19.832 102.496,19.79 
				102.399,19.787 102.296,19.779 102.189,19.779 102.079,19.787 101.966,19.793 101.854,19.804 101.746,19.814 101.639,19.828 
				101.531,19.841 101.431,19.859 101.341,19.876 101.259,19.894 101.183,19.914 101.117,19.936 101.065,19.958 101.023,19.984 
				101.059,20.003 101.017,19.997 101.017,19.997 			"/>
			<polygon fill-rule="evenodd" clip-rule="evenodd" fill="#FFFFFF" points="101.273,19.149 101.259,19.166 101.017,19.997 
				101.059,20.003 101.3,19.172 101.287,19.19 101.273,19.149 101.262,19.152 101.259,19.166 101.273,19.149 101.273,19.149 			"/>
			<polygon fill-rule="evenodd" clip-rule="evenodd" fill="#FFFFFF" points="102.809,18.991 102.809,18.991 102.689,18.984 
				102.573,18.98 102.462,18.98 102.354,18.98 102.247,18.98 102.148,18.987 102.048,18.991 101.951,18.998 101.858,19.003 
				101.766,19.018 101.68,19.032 101.594,19.048 101.509,19.066 101.428,19.09 101.349,19.118 101.273,19.149 101.287,19.19 
				101.362,19.159 101.441,19.132 101.517,19.107 101.601,19.09 101.687,19.073 101.772,19.06 101.858,19.045 101.951,19.039 
				102.048,19.032 102.148,19.028 102.247,19.028 102.354,19.028 102.462,19.028 102.573,19.028 102.689,19.032 102.809,19.032 
				102.809,19.032 102.809,18.991 102.809,18.991 			"/>
			<polygon fill-rule="evenodd" clip-rule="evenodd" fill="#FFFFFF" points="103.99,20.159 103.99,20.159 104.007,20.018 
				104.007,19.886 103.983,19.766 103.944,19.651 103.89,19.545 103.821,19.449 103.737,19.363 103.652,19.287 103.552,19.221 
				103.448,19.159 103.339,19.11 103.231,19.069 103.118,19.039 103.01,19.015 102.903,18.998 102.809,18.991 102.809,19.032 
				102.903,19.039 103.003,19.056 103.11,19.08 103.217,19.11 103.323,19.152 103.428,19.201 103.529,19.256 103.624,19.321 
				103.709,19.396 103.785,19.477 103.854,19.565 103.902,19.667 103.942,19.773 103.966,19.886 103.966,20.018 103.947,20.152 
				103.947,20.152 103.99,20.159 103.99,20.159 			"/>
			<polygon fill-rule="evenodd" clip-rule="evenodd" fill="#FFFFFF" points="103.628,21.979 103.628,21.979 103.99,20.159 
				103.947,20.152 103.586,21.972 103.586,21.972 103.628,21.979 103.628,21.979 			"/>
			<polygon fill-rule="evenodd" clip-rule="evenodd" fill="#F7B230" points="102.772,21.075 102.765,21.055 102.751,21.038 
				102.729,21.027 102.692,21.018 102.654,21.013 102.611,21.01 102.559,21.01 102.508,21.013 102.451,21.021 102.396,21.027 
				102.343,21.035 102.289,21.042 102.238,21.052 102.193,21.06 102.148,21.069 102.113,21.075 102.091,21.079 102.063,21.089 
				102.027,21.1 101.99,21.114 101.944,21.134 101.903,21.155 101.854,21.18 101.811,21.209 101.766,21.241 101.721,21.28 
				101.683,21.317 101.646,21.362 101.613,21.41 101.59,21.461 101.569,21.518 101.56,21.576 101.556,21.693 101.572,21.787 
				101.601,21.854 101.642,21.907 101.692,21.94 101.753,21.962 101.811,21.972 101.87,21.976 101.972,21.972 102.07,21.962 
				102.158,21.945 102.238,21.921 102.313,21.894 102.38,21.862 102.441,21.827 102.496,21.787 102.545,21.748 102.586,21.704 
				102.624,21.662 102.654,21.617 102.68,21.576 102.696,21.534 102.71,21.493 102.72,21.455 102.734,21.358 102.751,21.259 
				102.765,21.162 102.772,21.075 102.772,21.075 			"/>
			<polygon fill-rule="evenodd" clip-rule="evenodd" fill="#FFFFFF" points="109.875,22.27 109.881,22.189 109.908,22.097 
				109.957,22.014 110.017,21.94 110.088,21.883 110.171,21.841 110.26,21.813 110.356,21.804 110.454,21.813 110.544,21.841 
				110.625,21.883 110.698,21.94 110.758,22.014 110.805,22.097 110.834,22.189 110.841,22.27 110.736,22.27 110.733,22.207 
				110.713,22.131 110.678,22.062 110.633,22.003 110.577,21.955 110.513,21.921 110.438,21.897 110.356,21.89 110.277,21.897 
				110.202,21.921 110.136,21.955 110.08,22.003 110.038,22.062 110.002,22.131 109.981,22.207 109.976,22.27 109.875,22.27 
				109.875,22.27 			"/>
			<polygon fill-rule="evenodd" clip-rule="evenodd" fill="#FFFFFF" points="110.186,22.27 110.186,22.062 110.374,22.062 
				110.417,22.065 110.454,22.072 110.481,22.083 110.506,22.097 110.523,22.117 110.538,22.139 110.544,22.162 110.546,22.186 
				110.544,22.217 110.538,22.241 110.526,22.262 110.521,22.27 110.374,22.27 110.389,22.266 110.412,22.262 110.434,22.255 
				110.45,22.249 110.464,22.238 110.472,22.227 110.479,22.21 110.479,22.186 110.474,22.169 110.469,22.156 110.456,22.148 
				110.446,22.142 110.431,22.139 110.412,22.135 110.395,22.135 110.374,22.135 110.271,22.135 110.271,22.27 110.186,22.27 
				110.186,22.27 			"/>
			<polygon fill-rule="evenodd" clip-rule="evenodd" fill="#FFFFFF" points="109.875,22.27 109.872,22.289 109.881,22.39 
				109.908,22.482 109.957,22.566 110.017,22.635 110.088,22.692 110.171,22.738 110.26,22.766 110.356,22.776 110.454,22.766 
				110.544,22.738 110.625,22.692 110.698,22.635 110.758,22.566 110.805,22.482 110.834,22.39 110.844,22.289 110.841,22.27 
				110.736,22.27 110.74,22.289 110.733,22.373 110.713,22.449 110.678,22.515 110.633,22.572 110.577,22.621 110.513,22.658 
				110.438,22.683 110.356,22.689 110.277,22.683 110.202,22.658 110.136,22.621 110.08,22.572 110.038,22.515 110.002,22.449 
				109.981,22.373 109.976,22.289 109.976,22.27 109.875,22.27 109.875,22.27 			"/>
			<polygon fill-rule="evenodd" clip-rule="evenodd" fill="#FFFFFF" points="110.186,22.27 110.186,22.479 110.271,22.479 
				110.271,22.307 110.356,22.307 110.461,22.479 110.528,22.479 110.426,22.307 110.45,22.307 110.474,22.299 110.496,22.292 
				110.513,22.279 110.521,22.27 110.374,22.27 110.356,22.272 110.271,22.272 110.271,22.27 110.186,22.27 110.186,22.27 			"/>
			<path fill="none" stroke="#FFFFFF" stroke-width="0.0981" stroke-miterlimit="2.6131" d="M109.872,22.289L109.872,22.289
				l0.009-0.1l0.027-0.093l0.049-0.083l0.06-0.074l0.071-0.058l0.083-0.042l0.089-0.028l0.097-0.01l0,0l0.098,0.01l0.09,0.028
				l0.081,0.042l0.073,0.058l0.06,0.074l0.047,0.083l0.029,0.093l0.01,0.1l0,0l-0.01,0.101l-0.029,0.093l-0.047,0.083l-0.06,0.069
				l-0.073,0.058l-0.081,0.046l-0.09,0.027l-0.098,0.01l0,0l-0.097-0.01l-0.089-0.027l-0.083-0.046l-0.071-0.058l-0.06-0.069
				l-0.049-0.083l-0.027-0.093L109.872,22.289 M110.271,22.479h-0.086v-0.417h0.188l0,0l0.043,0.002l0.037,0.007l0.027,0.011
				l0.024,0.014l0.018,0.021l0.015,0.021l0.006,0.023l0.002,0.024l0,0l-0.002,0.031l-0.006,0.023l-0.012,0.021l-0.014,0.017
				l-0.017,0.014l-0.022,0.007l-0.023,0.008h-0.024l0.103,0.172h-0.067l-0.104-0.172h-0.085V22.479 M110.356,22.272L110.356,22.272
				l0.032-0.006l0.023-0.003l0.021-0.007l0.017-0.007l0.014-0.01l0.008-0.011l0.007-0.017v-0.024l0,0l-0.005-0.017l-0.005-0.013
				l-0.013-0.007l-0.01-0.007l-0.016-0.003l-0.019-0.003h-0.018h-0.021h-0.103v0.137H110.356 M110.356,22.689L110.356,22.689
				l0.081-0.006l0.075-0.025l0.064-0.037l0.056-0.049l0.045-0.057l0.035-0.066l0.021-0.076l0.007-0.083l0,0l-0.007-0.083
				l-0.021-0.075l-0.035-0.069l-0.045-0.059l-0.056-0.049l-0.064-0.034l-0.075-0.024l-0.081-0.007l0,0l-0.079,0.007l-0.075,0.024
				l-0.066,0.034l-0.056,0.049l-0.042,0.059l-0.036,0.069l-0.021,0.075l-0.006,0.083l0,0l0.006,0.083l0.021,0.076l0.036,0.066
				l0.042,0.057l0.056,0.049l0.066,0.037l0.075,0.025L110.356,22.689"/>
			<polygon fill-rule="evenodd" clip-rule="evenodd" fill="#FFFFFF" points="103.865,22.741 104.838,22.741 104.838,22.741 
				105.187,20.78 105.199,20.704 105.221,20.628 105.241,20.552 105.268,20.476 105.304,20.4 105.344,20.328 105.389,20.259 
				105.445,20.193 105.506,20.135 105.576,20.08 105.654,20.027 105.744,19.986 105.845,19.952 105.955,19.925 106.075,19.904 
				106.21,19.896 106.259,19.896 106.285,19.896 106.296,19.896 106.296,19.896 106.451,19.011 106.354,19.018 106.262,19.028 
				106.175,19.045 106.094,19.069 106.017,19.097 105.945,19.132 105.876,19.169 105.811,19.211 105.748,19.259 105.688,19.307 
				105.633,19.363 105.58,19.417 105.527,19.477 105.476,19.542 105.424,19.604 105.375,19.673 105.479,19.048 104.51,19.048 
				103.865,22.741 103.865,22.741 103.865,22.741 			"/>
			<polyline fill="none" stroke="#FFFFFF" stroke-width="0.0981" stroke-miterlimit="2.6131" points="103.865,22.741 
				104.838,22.741 104.838,22.741 105.187,20.78 105.187,20.78 105.199,20.704 105.221,20.628 105.241,20.552 105.268,20.476 
				105.304,20.4 105.344,20.328 105.389,20.259 105.445,20.193 105.506,20.135 105.576,20.08 105.654,20.027 105.744,19.986 
				105.845,19.952 105.955,19.925 106.075,19.904 106.21,19.896 106.21,19.896 106.259,19.896 106.285,19.896 106.296,19.896 
				106.296,19.896 106.451,19.011 106.451,19.011 106.354,19.018 106.262,19.028 106.175,19.045 106.094,19.069 106.017,19.097 
				105.945,19.132 105.876,19.169 105.811,19.211 105.748,19.259 105.688,19.307 105.633,19.363 105.58,19.417 105.527,19.477 
				105.476,19.542 105.424,19.604 105.375,19.673 105.479,19.048 104.51,19.048 103.865,22.741 103.865,22.741 			"/>
			<polygon fill-rule="evenodd" clip-rule="evenodd" fill="#FFFFFF" points="94.734,22.741 95.707,22.741 95.725,22.741 
				96.057,20.78 96.07,20.704 96.087,20.631 96.105,20.559 96.129,20.49 96.157,20.42 96.191,20.355 96.231,20.293 96.28,20.234 
				96.336,20.183 96.396,20.131 96.474,20.09 96.557,20.052 96.653,20.021 96.76,19.994 96.877,19.976 97.012,19.966 97.021,19.966 
				97.034,19.97 97.053,19.973 97.07,19.973 97.087,19.976 97.101,19.98 97.111,19.984 97.113,19.984 97.119,19.97 97.128,19.928 
				97.142,19.866 97.16,19.79 97.183,19.701 97.206,19.604 97.239,19.507 97.27,19.41 97.298,19.345 97.332,19.279 97.367,19.214 
				97.4,19.155 97.432,19.104 97.455,19.063 97.474,19.039 97.479,19.028 97.477,19.028 97.463,19.024 97.444,19.021 97.422,19.018 
				97.398,19.018 97.37,19.015 97.347,19.011 97.322,19.011 97.214,19.018 97.119,19.028 97.029,19.045 96.945,19.066 
				96.866,19.093 96.795,19.129 96.729,19.162 96.665,19.203 96.608,19.249 96.553,19.3 96.501,19.353 96.449,19.41 96.396,19.469 
				96.349,19.536 96.296,19.604 96.246,19.673 96.37,19.048 95.381,19.048 94.734,22.741 94.734,22.741 94.734,22.741 			"/>
			<polyline fill="none" stroke="#FFFFFF" stroke-width="0.0981" stroke-miterlimit="2.6131" points="94.734,22.741 95.707,22.741 
				95.725,22.741 96.057,20.78 96.057,20.78 96.07,20.704 96.087,20.631 96.105,20.559 96.129,20.49 96.157,20.42 96.191,20.355 
				96.231,20.293 96.28,20.234 96.336,20.183 96.396,20.131 96.474,20.09 96.557,20.052 96.653,20.021 96.76,19.994 96.877,19.976 
				97.012,19.966 97.012,19.966 97.021,19.966 97.034,19.97 97.053,19.973 97.07,19.973 97.087,19.976 97.101,19.98 97.111,19.984 
				97.113,19.984 97.113,19.984 97.119,19.97 97.128,19.928 97.142,19.866 97.16,19.79 97.183,19.701 97.206,19.604 97.239,19.507 
				97.27,19.41 97.27,19.41 97.298,19.345 97.332,19.279 97.367,19.214 97.4,19.155 97.432,19.104 97.455,19.063 97.474,19.039 
				97.479,19.028 97.479,19.028 97.477,19.028 97.463,19.024 97.444,19.021 97.422,19.018 97.398,19.018 97.37,19.015 
				97.347,19.011 97.322,19.011 97.322,19.011 97.214,19.018 97.119,19.028 97.029,19.045 96.945,19.066 96.866,19.093 
				96.795,19.129 96.729,19.162 96.665,19.203 96.608,19.249 96.553,19.3 96.501,19.353 96.449,19.41 96.396,19.469 96.349,19.536 
				96.296,19.604 96.246,19.673 96.37,19.048 95.381,19.048 94.734,22.741 94.734,22.741 			"/>
			<polygon fill-rule="evenodd" clip-rule="evenodd" fill="#F7B230" points="109.881,26.368 109.881,26.354 109.908,26.265 
				109.957,26.185 110.017,26.117 110.088,26.062 110.171,26.02 110.26,25.997 110.356,25.985 110.454,25.997 110.544,26.02 
				110.625,26.062 110.698,26.117 110.758,26.185 110.805,26.265 110.834,26.354 110.834,26.368 110.733,26.368 110.713,26.296 
				110.678,26.231 110.633,26.172 110.577,26.124 110.513,26.086 110.438,26.062 110.356,26.055 110.277,26.062 110.202,26.086 
				110.136,26.124 110.08,26.172 110.038,26.231 110.002,26.296 109.981,26.368 109.881,26.368 109.881,26.368 			"/>
			<polygon fill-rule="evenodd" clip-rule="evenodd" fill="#F7B230" points="110.186,26.368 110.186,26.249 110.374,26.249 
				110.417,26.249 110.454,26.254 110.481,26.261 110.506,26.274 110.523,26.292 110.538,26.313 110.544,26.337 110.546,26.368 
				110.479,26.368 110.479,26.351 110.474,26.334 110.469,26.32 110.456,26.313 110.446,26.306 110.431,26.303 110.412,26.299 
				110.395,26.299 110.374,26.299 110.271,26.299 110.271,26.368 110.186,26.368 110.186,26.368 			"/>
			<polygon fill-rule="evenodd" clip-rule="evenodd" fill="#F7B230" points="109.872,26.444 109.881,26.368 109.981,26.368 
				109.981,26.372 109.976,26.444 109.872,26.444 109.872,26.444 			"/>
			<polygon fill-rule="evenodd" clip-rule="evenodd" fill="#F7B230" points="110.186,26.444 110.186,26.368 110.271,26.368 
				110.271,26.437 110.356,26.437 110.389,26.431 110.412,26.427 110.434,26.42 110.45,26.414 110.464,26.403 110.472,26.392 
				110.479,26.375 110.479,26.368 110.546,26.368 110.546,26.368 110.544,26.392 110.538,26.414 110.526,26.431 110.513,26.444 
				110.186,26.444 110.186,26.444 			"/>
			<polygon fill-rule="evenodd" clip-rule="evenodd" fill="#F7B230" points="110.74,26.444 110.733,26.372 110.733,26.368 
				110.834,26.368 110.844,26.444 110.74,26.444 110.74,26.444 			"/>
			<polygon fill-rule="evenodd" clip-rule="evenodd" fill="#F7B230" points="109.872,26.444 109.872,26.455 109.881,26.554 
				109.908,26.647 109.957,26.73 110.017,26.802 110.088,26.861 110.171,26.902 110.26,26.93 110.356,26.94 110.454,26.93 
				110.544,26.902 110.625,26.861 110.698,26.802 110.758,26.73 110.805,26.647 110.834,26.554 110.844,26.455 110.844,26.444 
				110.74,26.444 110.74,26.455 110.733,26.537 110.713,26.613 110.678,26.679 110.633,26.736 110.577,26.786 110.513,26.824 
				110.438,26.848 110.356,26.854 110.277,26.848 110.202,26.824 110.136,26.786 110.08,26.736 110.038,26.679 110.002,26.613 
				109.981,26.537 109.976,26.455 109.976,26.444 109.872,26.444 109.872,26.444 			"/>
			<polygon fill-rule="evenodd" clip-rule="evenodd" fill="#F7B230" points="110.186,26.444 110.186,26.644 110.271,26.644 
				110.271,26.472 110.356,26.472 110.461,26.644 110.528,26.644 110.426,26.472 110.45,26.472 110.474,26.466 110.496,26.458 
				110.513,26.444 110.513,26.444 110.186,26.444 110.186,26.444 			"/>
			<path fill-rule="evenodd" clip-rule="evenodd" fill="#FFFFFF" d="M94.842,20.148l-0.027-0.206l-0.048-0.183l-0.069-0.158
				l-0.086-0.138l-0.104-0.118l-0.114-0.096l-0.123-0.083l-0.134-0.062l-0.139-0.053l-0.142-0.034l-0.141-0.024l-0.143-0.014
				l-0.134-0.004l-0.279,0.015l-0.249,0.041l-0.224,0.062l-0.199,0.086l-0.174,0.104l-0.15,0.117l-0.135,0.131l-0.11,0.138
				l-0.097,0.145l-0.079,0.152l-0.062,0.148l-0.052,0.147l-0.037,0.146l-0.027,0.134l-0.021,0.127l-0.014,0.111l-0.018,0.282
				l0.01,0.255l0.038,0.231l0.059,0.203l0.084,0.183l0.1,0.159l0.117,0.142l0.134,0.117l0.145,0.101l0.155,0.084l0.163,0.067
				l0.168,0.051l0.173,0.042l0.173,0.024l0.172,0.017l0.171,0.003h0.112l0.105-0.003h0.093l0.09-0.004l0.081-0.006l0.071-0.007
				l0.069-0.007l0.062-0.011l0.061-0.011l0.054-0.014l0.056-0.017l0.052-0.017l0.051-0.021l0.056-0.02l0.056-0.028l0.055-0.027
				l0.14-0.849l-0.102,0.059l-0.096,0.054l-0.101,0.041l-0.097,0.039l-0.094,0.031l-0.096,0.02l-0.095,0.018l-0.093,0.013
				l-0.092,0.007l-0.09,0.003h-0.093l-0.09-0.003l-0.091-0.007l-0.09-0.01l-0.084-0.011l-0.091-0.014l-0.068-0.014l-0.068-0.024
				l-0.07-0.03l-0.062-0.039l-0.062-0.041l-0.053-0.051l-0.052-0.052l-0.049-0.06l-0.043-0.058l-0.036-0.065l-0.026-0.063
				l-0.026-0.065l-0.015-0.066l-0.004-0.066l0.002-0.058l0.007-0.044h2.237l0.018-0.21l0.052-0.291l0.023-0.263L94.842,20.148z
				 M93.909,20.466h-1.261l0.001-0.003h-0.001l0.009-0.048l0.014-0.072l0.02-0.07l0.024-0.068l0.031-0.062l0.033-0.059l0.035-0.056
				l0.042-0.051l0.047-0.048l0.042-0.042l0.054-0.038l0.051-0.031l0.059-0.028l0.06-0.02l0.059-0.014l0.061-0.01l0.067-0.003
				l0.061,0.008l0.059,0.009l0.056,0.015l0.055,0.02l0.053,0.027l0.052,0.031l0.045,0.034l0.039,0.042l0.036,0.048l0.035,0.051
				l0.022,0.059l0.025,0.065l0.014,0.069l0.007,0.076l0.004,0.083L93.909,20.466z"/>
		</g>
	</g>
	<g id="Amex_1_">
		<path fill="#016380" d="M63.96,74.085c0,1.049-0.85,1.897-1.9,1.897H8.889c-1.048,0-1.898-0.849-1.898-1.897V42.277
			c0-1.049,0.85-1.899,1.898-1.899h53.172c1.05,0,1.9,0.85,1.9,1.899V74.085z"/>
		<g>
			<path fill="#FFFFFF" d="M24.666,57.352v-0.57l-0.272,0.57h-2.358l-0.296-0.611v0.611H17.33l-0.521-1.234h-0.883l-0.553,1.234
				h-2.286v-3.723l1.676-3.791h3.208l0.45,1.074v-1.066h3.924l0.863,1.809l0.845-1.816h12.387c0,0,0.649-0.01,1.078,0.292
				l-0.003-0.292h3.121v0.41c0,0,0.562-0.41,1.392-0.41s5.507,0,5.507,0l0.484,1.09v-1.09h3.529l0.64,1.09v-1.09h3.374v7.521h-3.465
				l-0.814-1.312v1.305h-4.308l-0.606-1.343h-0.844l-0.568,1.343h-2.606c0,0-0.973-0.014-1.702-0.534c0,0.273,0,0.534,0,0.534h-5.19
				c0,0,0-1.5,0-1.756c0-0.253-0.195-0.235-0.195-0.235h-0.189v1.991H24.666z"/>
			<path fill="#FFFFFF" d="M22.076,58.979h6.82l0.985,1.115l1.006-1.115h5.244c0,0,0.492,0.013,0.959,0.262v-0.262
				c0,0,4.079,0,4.67,0c0.593,0,1.091,0.296,1.091,0.296v-0.296h6.001v0.273c0,0,0.428-0.273,1.003-0.273c0.574,0,3.909,0,3.909,0
				v0.273c0,0,0.494-0.273,1.014-0.273c0.521,0,3.071,0,3.071,0v7.087c0,0-0.404,0.458-1.238,0.458h-4.047v-0.226
				c0,0-0.386,0.226-0.973,0.226c-0.586,0-10.752,0-10.752,0s0-1.649,0-1.832c0-0.181-0.078-0.213-0.239-0.213h-0.148v2.045h-3.361
				v-2.033c0,0-0.373,0.201-0.995,0.201c-0.622,0-1.208,0-1.208,0v1.832h-4.142l-0.942-1.149l-1.007,1.149h-6.72V58.979z"/>
			<polygon fill="#016380" points="43.572,60.111 47.852,60.111 47.852,61.259 44.882,61.259 44.882,62.261 47.769,62.261 
				47.769,63.271 44.882,63.271 44.882,64.324 47.852,64.324 47.852,65.443 43.572,65.443 			"/>
			<path fill="#016380" d="M56.121,62.19c1.608,0.081,1.743,0.885,1.743,1.741c0,1-0.822,1.536-1.678,1.536h-2.751v-1.144h2.143
				c0.364,0,0.905,0,0.905-0.512c0-0.244-0.095-0.398-0.481-0.439c-0.172-0.023-0.808-0.061-0.905-0.063
				c-1.454-0.036-1.792-0.76-1.792-1.64c0-1,0.703-1.546,1.561-1.546h2.749v1.142h-2.012c-0.458,0.005-0.952-0.055-0.952,0.463
				c0,0.328,0.243,0.393,0.554,0.425C55.31,62.153,56.025,62.19,56.121,62.19z"/>
			<path fill="#016380" d="M51.191,62.19c1.61,0.081,1.745,0.885,1.745,1.741c0,1-0.821,1.536-1.678,1.536h-2.75v-1.144h2.143
				c0.362,0,0.904,0,0.904-0.512c0-0.244-0.095-0.398-0.482-0.439c-0.173-0.023-0.809-0.061-0.904-0.063
				c-1.456-0.036-1.791-0.76-1.791-1.64c0-1,0.701-1.546,1.558-1.546h2.749v1.142h-2.01c-0.459,0.005-0.953-0.055-0.953,0.463
				c0,0.328,0.245,0.393,0.555,0.425C50.382,62.153,51.097,62.19,51.191,62.19z"/>
			<path fill="#016380" d="M35.668,60.122h-4.594l-1.5,1.655l-1.452-1.666h-5.16v5.332h4.994l1.572-1.762l1.534,1.774h2.512v-1.811
				h1.761c0.679,0,1.917-0.022,1.917-1.894C37.251,60.42,36.312,60.122,35.668,60.122z M27.271,64.324h-3.018v-1.053h2.888v-1.011
				h-2.888v-1.002l3.184,0.007l1.274,1.452L27.271,64.324z M32.276,64.943l-1.881-2.226l1.881-2.083V64.943z M35.227,62.548h-1.63
				v-1.28h1.636c0.548,0,0.721,0.351,0.721,0.613C35.954,62.237,35.763,62.548,35.227,62.548z"/>
			<path fill="#016380" d="M41.993,63.027c0.715-0.356,0.905-0.833,0.905-1.478c0-1.141-0.928-1.426-1.571-1.426h-3.404v5.332h1.309
				v-1.882h1.714c0.452,0,0.63,0.452,0.642,0.905l0.035,0.977h1.275l-0.048-1.095C42.849,63.503,42.613,63.1,41.993,63.027z
				 M40.862,62.475h-1.631v-1.207h1.636c0.547,0,0.72,0.351,0.72,0.613C41.587,62.237,41.398,62.475,40.862,62.475z"/>
			<rect x="38.447" y="50.905" fill="#016380" width="1.31" height="5.339"/>
			<polygon fill="#016380" points="27.73,50.912 32.009,50.912 32.009,52.061 29.039,52.061 29.039,53.061 31.925,53.061 
				31.925,54.071 29.039,54.071 29.039,55.124 32.009,55.124 32.009,56.244 27.73,56.244 			"/>
			<path fill="#016380" d="M36.856,53.815c0.715-0.355,0.905-0.834,0.905-1.476c0-1.144-0.929-1.428-1.571-1.428h-3.405v5.332h1.31
				v-1.88h1.713c0.453,0,0.632,0.451,0.644,0.903l0.036,0.977h1.273l-0.046-1.095C37.714,54.291,37.476,53.888,36.856,53.815z
				 M35.725,53.265h-1.63v-1.21h1.636c0.547,0,0.721,0.352,0.721,0.614C36.452,53.025,36.261,53.265,35.725,53.265z"/>
			<path fill="#016380" d="M24.71,50.912l-1.607,3.576l-1.602-3.576h-2.053v5.135l-2.285-5.135h-1.732l-2.333,5.332h1.381
				l0.511-1.19h2.613l0.519,1.19h2.635v-3.959l1.75,3.959h1.19l1.791-3.892v3.892h1.31v-5.332H24.71z M15.485,53.903l0.781-1.864
				l0.813,1.864H15.485z"/>
			<path fill="#016380" d="M53.266,50.908v3.694l-2.208-3.694h-1.935v5.008l-2.23-5.004h-1.732l-1.804,4.131
				c0,0-0.762,0-0.839-0.019c-0.315-0.066-0.809-0.288-0.815-1.229v-0.386c0-1.25,0.679-1.342,1.549-1.342h0.809v-1.159h-1.71
				c-0.595,0-1.891,0.456-1.934,2.645c-0.03,1.477,0.613,2.694,2.065,2.694h1.726l0.511-1.191h2.613l0.517,1.191h2.583v-3.904
				l2.356,3.904h1.786v-5.339H53.266z M45.224,53.906l0.78-1.864l0.821,1.864H45.224z"/>
		</g>
	</g>
	<g id="Discover">
		<path fill="#F9F9F9" d="M123.01,74.084c0,1.049-0.851,1.898-1.899,1.898H67.938c-1.048,0-1.899-0.85-1.899-1.898V42.277
			c0-1.051,0.852-1.901,1.899-1.901h53.172c1.049,0,1.899,0.85,1.899,1.901V74.084z"/>
		<path fill="#F28221" d="M81.699,75.982h39.411c1.049,0,1.899-0.85,1.899-1.898V60.752C119.227,63.15,104.967,71.416,81.699,75.982
			z"/>
		<g>
			
				<radialGradient id="SVGID_1_" cx="88.8008" cy="-427.9014" r="2.8073" gradientTransform="matrix(1 0 0 1 6.416 486.083)" gradientUnits="userSpaceOnUse">
				<stop  offset="0.0056" style="stop-color:#F7EFE0"/>
				<stop  offset="0.11" style="stop-color:#F7EAD7"/>
				<stop  offset="0.2803" style="stop-color:#F6DCBF"/>
				<stop  offset="0.4954" style="stop-color:#F5C597"/>
				<stop  offset="0.7467" style="stop-color:#F3A560"/>
				<stop  offset="1" style="stop-color:#F18121"/>
			</radialGradient>
			<path fill="url(#SVGID_1_)" d="M95.222,55.406c-1.572,0-2.844,1.226-2.844,2.74c0,1.609,1.219,2.811,2.844,2.811
				c1.584,0,2.834-1.217,2.834-2.78C98.056,56.627,96.813,55.406,95.222,55.406z"/>
			<path fill="#091722" d="M79.081,55.506h-1.528v5.332h1.521c0.807,0,1.389-0.191,1.901-0.615c0.607-0.504,0.967-1.264,0.967-2.048
				C81.941,56.6,80.767,55.506,79.081,55.506z M80.297,59.511c-0.329,0.297-0.753,0.424-1.424,0.424h-0.28V56.41h0.28
				c0.671,0,1.077,0.118,1.424,0.431c0.358,0.319,0.574,0.815,0.574,1.326C80.871,58.68,80.655,59.193,80.297,59.511z"/>
			<rect x="82.422" y="55.506" fill="#091722" width="1.04" height="5.332"/>
			<path fill="#091722" d="M86.004,57.55c-0.625-0.229-0.808-0.381-0.808-0.67c0-0.334,0.326-0.591,0.774-0.591
				c0.313,0,0.567,0.129,0.84,0.432l0.544-0.711c-0.447-0.393-0.983-0.592-1.566-0.592c-0.943,0-1.663,0.655-1.663,1.526
				c0,0.736,0.335,1.111,1.311,1.463c0.406,0.145,0.617,0.239,0.72,0.305c0.207,0.136,0.312,0.327,0.312,0.551
				c0,0.433-0.343,0.752-0.808,0.752c-0.496,0-0.896-0.247-1.135-0.711l-0.671,0.647c0.479,0.703,1.055,1.016,1.847,1.016
				c1.079,0,1.838-0.722,1.838-1.751C87.538,58.368,87.188,57.984,86.004,57.55z"/>
			<path fill="#091722" d="M87.865,58.175c0,1.569,1.232,2.782,2.815,2.782c0.447,0,0.831-0.087,1.303-0.311v-1.224
				c-0.416,0.416-0.783,0.583-1.255,0.583c-1.048,0-1.792-0.76-1.792-1.839c0-1.021,0.767-1.83,1.744-1.83
				c0.495,0,0.871,0.176,1.303,0.6v-1.223c-0.454-0.231-0.832-0.327-1.279-0.327C89.129,55.387,87.865,56.627,87.865,58.175z"/>
			<polygon fill="#091722" points="100.409,59.088 98.986,55.506 97.85,55.506 100.114,60.975 100.673,60.975 102.975,55.506 
				101.849,55.506 			"/>
			<polygon fill="#091722" points="103.448,60.838 106.396,60.838 106.396,59.935 104.487,59.935 104.487,58.495 106.325,58.495 
				106.325,57.594 104.487,57.594 104.487,56.41 106.396,56.41 106.396,55.506 103.448,55.506 			"/>
			<path fill="#091722" d="M110.514,57.079c0-0.998-0.688-1.573-1.888-1.573h-1.542v5.332h1.04v-2.142h0.136l1.439,2.142h1.278
				l-1.681-2.246C110.08,58.433,110.514,57.896,110.514,57.079z M108.427,57.96h-0.303v-1.615h0.319c0.648,0,1,0.272,1,0.791
				C109.443,57.672,109.092,57.96,108.427,57.96z"/>
			<path fill="#231F20" d="M111.247,55.904c0-0.094-0.062-0.145-0.177-0.145h-0.152v0.47h0.112v-0.184l0.131,0.184h0.139
				l-0.156-0.193C111.21,56.017,111.247,55.969,111.247,55.904z M111.051,55.967h-0.021v-0.122h0.021
				c0.056,0,0.084,0.021,0.084,0.062C111.135,55.946,111.105,55.967,111.051,55.967z"/>
			<path fill="#231F20" d="M111.091,55.583c-0.227,0-0.409,0.184-0.409,0.41c0,0.226,0.185,0.41,0.409,0.41
				c0.224,0,0.406-0.186,0.406-0.41C111.497,55.767,111.314,55.583,111.091,55.583z M111.091,56.33
				c-0.182,0-0.327-0.149-0.327-0.336c0-0.188,0.145-0.336,0.327-0.336c0.178,0,0.321,0.15,0.321,0.336S111.269,56.33,111.091,56.33
				z"/>
		</g>
	</g>
</g>
<g id="PayPal">
</g>
<g id="Android_Pay">
</g>
<g id="Apple_Pay">
</g>
<g id="Google_Pay">
</g>
<g id="Amazon_Pay">
</g>
</svg>
