<?xml version="1.0" encoding="utf-8"?>
<!-- Generator: Adobe Illustrator 16.0.0, SVG Export Plug-In . SVG Version: 6.00 Build 0)  -->
<!DOCTYPE svg PUBLIC "-//W3C//DTD SVG 1.1//EN" "http://www.w3.org/Graphics/SVG/1.1/DTD/svg11.dtd">
<svg version="1.1" xmlns="http://www.w3.org/2000/svg" xmlns:xlink="http://www.w3.org/1999/xlink" x="0px" y="0px" width="130px"
	 height="80px" viewBox="0 0 130 80" enable-background="new 0 0 130 80" xml:space="preserve">
<g id="Cards">
</g>
<g id="PayPal">
</g>
<g id="Android_Pay">
</g>
<g id="Apple_Pay">
</g>
<g id="Google_Pay">
	<path fill="#5F6368" d="M61.535,40.936v14.9h-4.727V19.039h12.536c3.022-0.062,5.944,1.084,8.118,3.186
		c2.198,1.979,3.435,4.809,3.391,7.767c0.062,2.973-1.176,5.825-3.391,7.81c-2.192,2.09-4.898,3.135-8.118,3.133h-7.81V40.936z
		 M61.535,23.57v12.844h7.928c1.757,0.053,3.454-0.639,4.677-1.902c2.482-2.414,2.538-6.385,0.125-8.867
		c-0.042-0.043-0.083-0.084-0.125-0.125c-1.208-1.291-2.911-2.002-4.677-1.953h-7.928V23.57z"/>
	<path fill="#5F6368" d="M91.746,29.838c3.494,0,6.252,0.934,8.274,2.801c2.021,1.867,3.031,4.428,3.029,7.681v15.517h-4.521v-3.494
		h-0.205c-1.957,2.878-4.561,4.316-7.81,4.316c-2.774,0-5.095-0.822-6.962-2.466c-1.814-1.529-2.843-3.794-2.801-6.166
		c0-2.605,0.984-4.677,2.954-6.216c1.969-1.537,4.598-2.309,7.887-2.313c2.806,0,5.117,0.515,6.935,1.542v-1.08
		c0.01-1.617-0.706-3.154-1.953-4.184c-1.25-1.129-2.879-1.744-4.562-1.725c-2.641,0-4.729,1.114-6.269,3.342l-4.163-2.622
		C83.869,31.482,87.259,29.838,91.746,29.838z M85.631,48.13c-0.007,1.22,0.578,2.368,1.568,3.082
		c1.045,0.822,2.342,1.258,3.673,1.234c1.994-0.004,3.906-0.799,5.316-2.209c1.566-1.475,2.349-3.203,2.349-5.188
		c-1.474-1.175-3.528-1.762-6.165-1.762c-1.921,0-3.521,0.463-4.804,1.389C86.274,45.616,85.631,46.759,85.631,48.13z"/>
	<path fill="#5F6368" d="M129.004,30.66l-15.783,36.274h-4.88l5.857-12.692L103.819,30.66h5.138l7.502,18.086h0.103l7.295-18.086
		H129.004z"/>
	<path fill="#3E81BA" d="M42.434,37.725c0.002-1.441-0.12-2.879-0.363-4.299H22.135v8.141h11.418
		c-0.473,2.629-1.998,4.948-4.223,6.426v5.284h6.814C40.135,49.598,42.434,44.157,42.434,37.725z"/>
	<path fill="#319F4F" d="M22.135,58.383c5.704,0,10.508-1.874,14.01-5.104l-6.814-5.284c-1.896,1.286-4.34,2.02-7.195,2.02
		c-5.514,0-10.194-3.716-11.868-8.725h-7.02v5.445C6.835,53.875,14.143,58.382,22.135,58.383z"/>
	<path fill="#F5BC0F" d="M10.267,41.289c-0.884-2.625-0.884-5.468,0-8.092V27.75h-7.02c-3.001,5.973-3.001,13.013,0,18.984
		L10.267,41.289z"/>
	<path fill="#E84335" d="M22.135,24.471c3.014-0.049,5.928,1.09,8.108,3.172l0,0l6.034-6.034c-3.826-3.593-8.895-5.565-14.143-5.505
		c-7.992,0-15.3,4.507-18.888,11.646l7.02,5.447C11.94,28.188,16.621,24.471,22.135,24.471z"/>
</g>
<g id="Amazon_Pay">
</g>
</svg>
